<svg version='1.1' xmlns='http://www.w3.org/2000/svg' width="146" height="146">
    <clipPath id="roate">
        <rect x="32" y="0" height="100" width="100" transform="rotate(45 50 50)" ></rect>
    </clipPath>
    <rect x="32" y="0" height="100" width="100" fill='#121119' transform="rotate(45 50 50)" ></rect>
    <rect x="22" y="20" height="100" width="100" fill='#F2F2F2' clip-path="url(#roate)"></rect>
    <rect x="32" y="0" height="100" width="100" fill="transparent" stroke='#121119' transform="rotate(45 50 50)" stroke-width="3"></rect>
    <g transform="scale(5, 5) translate(10.7, 13)">
        <path
            fill="#121119"
            transform="translate(-3.4,-7.75)"
            d="m 7.625,7.0625 c -0.1240235,0 -0.2312011,0.037028 -0.3242188,0.109375 -0.093018,0.072347 -0.140625,0.1795248 -0.140625,0.3242188 0,0.1205783 0.034153,0.2244194 0.099609,0.3105468 0.065457,0.086127 0.1534288,0.1394857 0.2636719,0.1601563 h 0.2636719 c 0.068902,0 0.1015625,0.1014268 0.1015625,0.3046875 0,0.1860351 -0.048069,0.3860134 -0.1445313,0.5996094 -0.093018,0.2101508 -0.2482638,0.3885091 -0.46875,0.5332031 v 0.072266 C 7.5888946,9.3559842 7.8374024,9.1560059 8.0234375,8.8769531 8.2094726,8.5944553 8.3027344,8.2935113 8.3027344,7.9765625 c 0,-0.1756999 -0.031738,-0.3309462 -0.09375,-0.46875 C 8.1504178,7.3665636 8.0701497,7.2574327 7.9667969,7.1816406 7.863444,7.1024034 7.7490234,7.0625 7.625,7.0625 Z m 1.4316406,0 c -0.1205783,0 -0.2277561,0.037489 -0.3242187,0.1132812 -0.096463,0.072347 -0.1445313,0.1790636 -0.1445313,0.3203126 0,0.1205783 0.0322,0.2244194 0.097656,0.3105468 0.068902,0.086127 0.1568739,0.1394857 0.2636719,0.1601563 0.01378,0.00345 0.048394,0.00586 0.1035156,0.00586 0.055121,-0.00345 0.1084796,-0.00586 0.1601562,-0.00586 0.072347,0 0.1074219,0.1014268 0.1074219,0.3046875 0,0.1756998 -0.048069,0.3728027 -0.1445313,0.5898437 -0.093018,0.217041 -0.2453884,0.3982748 -0.4589843,0.5429688 v 0.072266 C 9.0303006,9.3559842 9.2788086,9.1560059 9.4648438,8.8769531 9.6508789,8.5944553 9.7441406,8.2935113 9.7441406,7.9765625 c 0,-0.2652723 -0.064399,-0.4839952 -0.1953125,-0.65625 C 9.4179145,7.1480578 9.253011,7.0625 9.0566406,7.0625 Z" />
        <path
            fill="#121119"
            transform="translate(0,-1) rotate(180,5.1464265,4.8925296)"
            d="m 7.625,7.0625 c -0.1240235,0 -0.2312011,0.037028 -0.3242188,0.109375 -0.093018,0.072347 -0.140625,0.1795248 -0.140625,0.3242188 0,0.1205783 0.034153,0.2244194 0.099609,0.3105468 0.065457,0.086127 0.1534288,0.1394857 0.2636719,0.1601563 h 0.2636719 c 0.068902,0 0.1015625,0.1014268 0.1015625,0.3046875 0,0.1860351 -0.048069,0.3860134 -0.1445313,0.5996094 -0.093018,0.2101508 -0.2482638,0.3885091 -0.46875,0.5332031 v 0.072266 C 7.5888946,9.3559842 7.8374024,9.1560059 8.0234375,8.8769531 8.2094726,8.5944553 8.3027344,8.2935113 8.3027344,7.9765625 c 0,-0.1756999 -0.031738,-0.3309462 -0.09375,-0.46875 C 8.1504178,7.3665636 8.0701497,7.2574327 7.9667969,7.1816406 7.863444,7.1024034 7.7490234,7.0625 7.625,7.0625 Z m 1.4316406,0 c -0.1205783,0 -0.2277561,0.037489 -0.3242187,0.1132812 -0.096463,0.072347 -0.1445313,0.1790636 -0.1445313,0.3203126 0,0.1205783 0.0322,0.2244194 0.097656,0.3105468 0.068902,0.086127 0.1568739,0.1394857 0.2636719,0.1601563 0.01378,0.00345 0.048394,0.00586 0.1035156,0.00586 0.055121,-0.00345 0.1084796,-0.00586 0.1601562,-0.00586 0.072347,0 0.1074219,0.1014268 0.1074219,0.3046875 0,0.1756998 -0.048069,0.3728027 -0.1445313,0.5898437 -0.093018,0.217041 -0.2453884,0.3982748 -0.4589843,0.5429688 v 0.072266 C 9.0303006,9.3559842 9.2788086,9.1560059 9.4648438,8.8769531 9.6508789,8.5944553 9.7441406,8.2935113 9.7441406,7.9765625 c 0,-0.2652723 -0.064399,-0.4839952 -0.1953125,-0.65625 C 9.4179145,7.1480578 9.253011,7.0625 9.0566406,7.0625 Z" />
    </g>
</svg>
